<svg width="97" height="29" viewBox="0 0 97 29" fill="none" xmlns="http://www.w3.org/2000/svg">
<path d="M11.0772 10.85C10.9572 11.04 10.8272 11.175 10.6872 11.255C10.5572 11.335 10.3872 11.375 10.1772 11.375C9.95717 11.375 9.73717 11.33 9.51717 11.24C9.29717 11.14 9.05717 11.035 8.79717 10.925C8.54717 10.815 8.26217 10.715 7.94217 10.625C7.62217 10.525 7.25717 10.475 6.84717 10.475C6.25717 10.475 5.80217 10.59 5.48217 10.82C5.17217 11.04 5.01717 11.35 5.01717 11.75C5.01717 12.04 5.11717 12.28 5.31717 12.47C5.52717 12.66 5.80217 12.83 6.14217 12.98C6.48217 13.12 6.86717 13.255 7.29717 13.385C7.72717 13.515 8.16717 13.66 8.61717 13.82C9.06717 13.98 9.50717 14.17 9.93717 14.39C10.3672 14.6 10.7522 14.865 11.0922 15.185C11.4322 15.495 11.7022 15.875 11.9022 16.325C12.1122 16.775 12.2172 17.315 12.2172 17.945C12.2172 18.715 12.0772 19.425 11.7972 20.075C11.5172 20.725 11.0972 21.285 10.5372 21.755C9.98717 22.225 9.30217 22.59 8.48217 22.85C7.67217 23.11 6.73717 23.24 5.67717 23.24C5.14717 23.24 4.61717 23.19 4.08717 23.09C3.55717 22.99 3.04217 22.855 2.54217 22.685C2.05217 22.515 1.59717 22.315 1.17717 22.085C0.757168 21.845 0.397168 21.59 0.097168 21.32L1.17717 19.61C1.29717 19.41 1.44717 19.255 1.62717 19.145C1.81717 19.025 2.05717 18.965 2.34717 18.965C2.61717 18.965 2.85717 19.025 3.06717 19.145C3.28717 19.265 3.52217 19.395 3.77217 19.535C4.02217 19.675 4.31217 19.805 4.64217 19.925C4.98217 20.045 5.40717 20.105 5.91717 20.105C6.27717 20.105 6.58217 20.07 6.83217 20C7.08217 19.92 7.28217 19.815 7.43217 19.685C7.58217 19.555 7.69217 19.41 7.76217 19.25C7.83217 19.09 7.86717 18.925 7.86717 18.755C7.86717 18.445 7.76217 18.19 7.55217 17.99C7.34217 17.79 7.06717 17.62 6.72717 17.48C6.38717 17.33 5.99717 17.195 5.55717 17.075C5.12717 16.945 4.68717 16.8 4.23717 16.64C3.78717 16.48 3.34217 16.29 2.90217 16.07C2.47217 15.84 2.08717 15.555 1.74717 15.215C1.40717 14.865 1.13217 14.44 0.922168 13.94C0.712168 13.44 0.607168 12.835 0.607168 12.125C0.607168 11.465 0.732168 10.84 0.982168 10.25C1.24217 9.64999 1.62717 9.12499 2.13717 8.67499C2.64717 8.22499 3.28717 7.86999 4.05717 7.60999C4.82717 7.33999 5.72717 7.20499 6.75717 7.20499C7.31717 7.20499 7.85717 7.25499 8.37717 7.35499C8.90717 7.45499 9.40217 7.59499 9.86217 7.77499C10.3222 7.95499 10.7422 8.16999 11.1222 8.41999C11.5022 8.65999 11.8372 8.92499 12.1272 9.21499L11.0772 10.85Z" fill="black"/>
<path d="M19.3065 7.44499V23H14.6565V7.44499H19.3065ZM19.7865 3.18499C19.7865 3.55499 19.7115 3.90499 19.5615 4.23499C19.4115 4.55499 19.2065 4.83999 18.9465 5.08999C18.6865 5.32999 18.3815 5.52499 18.0315 5.67498C17.6915 5.81499 17.3265 5.88499 16.9365 5.88499C16.5565 5.88499 16.2015 5.81499 15.8715 5.67498C15.5415 5.52499 15.2465 5.32999 14.9865 5.08999C14.7365 4.83999 14.5365 4.55499 14.3865 4.23499C14.2465 3.90499 14.1765 3.55499 14.1765 3.18499C14.1765 2.80499 14.2465 2.44999 14.3865 2.11999C14.5365 1.78999 14.7365 1.49999 14.9865 1.24999C15.2465 0.999986 15.5415 0.804986 15.8715 0.664986C16.2015 0.524986 16.5565 0.454987 16.9365 0.454987C17.3265 0.454987 17.6915 0.524986 18.0315 0.664986C18.3815 0.804986 18.6865 0.999986 18.9465 1.24999C19.2065 1.49999 19.4115 1.78999 19.5615 2.11999C19.7115 2.44999 19.7865 2.80499 19.7865 3.18499Z" fill="black"/>
<path d="M27.1996 0.544985V23H22.5496V0.544985H27.1996Z" fill="black"/>
<path d="M34.9926 0.544985V23H30.3426V0.544985H34.9926Z" fill="black"/>
<path d="M46.1605 16.67C45.2305 16.71 44.4655 16.79 43.8655 16.91C43.2655 17.03 42.7905 17.18 42.4405 17.36C42.0905 17.54 41.8455 17.745 41.7055 17.975C41.5755 18.205 41.5105 18.455 41.5105 18.725C41.5105 19.255 41.6555 19.63 41.9455 19.85C42.2355 20.06 42.6605 20.165 43.2205 20.165C43.8205 20.165 44.3455 20.06 44.7955 19.85C45.2455 19.64 45.7005 19.3 46.1605 18.83V16.67ZM37.7905 9.60499C38.7305 8.77499 39.7705 8.15999 40.9105 7.75999C42.0605 7.34999 43.2905 7.14499 44.6005 7.14499C45.5405 7.14499 46.3855 7.29999 47.1355 7.60999C47.8955 7.90999 48.5355 8.33499 49.0555 8.88499C49.5855 9.42499 49.9905 10.07 50.2705 10.82C50.5505 11.57 50.6905 12.39 50.6905 13.28V23H48.5605C48.1205 23 47.7855 22.94 47.5555 22.82C47.3355 22.7 47.1505 22.45 47.0005 22.07L46.6705 21.215C46.2805 21.545 45.9055 21.835 45.5455 22.085C45.1855 22.335 44.8105 22.55 44.4205 22.73C44.0405 22.9 43.6305 23.025 43.1905 23.105C42.7605 23.195 42.2805 23.24 41.7505 23.24C41.0405 23.24 40.3955 23.15 39.8155 22.97C39.2355 22.78 38.7405 22.505 38.3305 22.145C37.9305 21.785 37.6205 21.34 37.4005 20.81C37.1805 20.27 37.0705 19.65 37.0705 18.95C37.0705 18.39 37.2105 17.825 37.4905 17.255C37.7705 16.675 38.2555 16.15 38.9455 15.68C39.6355 15.2 40.5655 14.8 41.7355 14.48C42.9055 14.16 44.3805 13.98 46.1605 13.94V13.28C46.1605 12.37 45.9705 11.715 45.5905 11.315C45.2205 10.905 44.6905 10.7 44.0005 10.7C43.4505 10.7 43.0005 10.76 42.6505 10.88C42.3005 11 41.9855 11.135 41.7055 11.285C41.4355 11.435 41.1705 11.57 40.9105 11.69C40.6505 11.81 40.3405 11.87 39.9805 11.87C39.6605 11.87 39.3905 11.79 39.1705 11.63C38.9505 11.47 38.7705 11.28 38.6305 11.06L37.7905 9.60499Z" fill="black"/>
<path d="M63.5479 10.85C63.4279 11.04 63.2979 11.175 63.1579 11.255C63.0279 11.335 62.8579 11.375 62.6479 11.375C62.4279 11.375 62.2079 11.33 61.9879 11.24C61.7679 11.14 61.5279 11.035 61.2679 10.925C61.0179 10.815 60.7329 10.715 60.4129 10.625C60.0929 10.525 59.7279 10.475 59.3179 10.475C58.7279 10.475 58.2729 10.59 57.9529 10.82C57.6429 11.04 57.4879 11.35 57.4879 11.75C57.4879 12.04 57.5879 12.28 57.7879 12.47C57.9979 12.66 58.2729 12.83 58.6129 12.98C58.9529 13.12 59.3379 13.255 59.7679 13.385C60.1979 13.515 60.6379 13.66 61.0879 13.82C61.5379 13.98 61.9779 14.17 62.4079 14.39C62.8379 14.6 63.2229 14.865 63.5629 15.185C63.9029 15.495 64.1729 15.875 64.3729 16.325C64.5829 16.775 64.6879 17.315 64.6879 17.945C64.6879 18.715 64.5479 19.425 64.2679 20.075C63.9879 20.725 63.5679 21.285 63.0079 21.755C62.4579 22.225 61.7729 22.59 60.9529 22.85C60.1429 23.11 59.2079 23.24 58.1479 23.24C57.6179 23.24 57.0879 23.19 56.5579 23.09C56.0279 22.99 55.5129 22.855 55.0129 22.685C54.5229 22.515 54.0679 22.315 53.6479 22.085C53.2279 21.845 52.8679 21.59 52.5679 21.32L53.6479 19.61C53.7679 19.41 53.9179 19.255 54.0979 19.145C54.2879 19.025 54.5279 18.965 54.8179 18.965C55.0879 18.965 55.3279 19.025 55.5379 19.145C55.7579 19.265 55.9929 19.395 56.2429 19.535C56.4929 19.675 56.7829 19.805 57.1129 19.925C57.4529 20.045 57.8779 20.105 58.3879 20.105C58.7479 20.105 59.0529 20.07 59.3029 20C59.5529 19.92 59.7529 19.815 59.9029 19.685C60.0529 19.555 60.1629 19.41 60.2329 19.25C60.3029 19.09 60.3379 18.925 60.3379 18.755C60.3379 18.445 60.2329 18.19 60.0229 17.99C59.8129 17.79 59.5379 17.62 59.1979 17.48C58.8579 17.33 58.4679 17.195 58.0279 17.075C57.5979 16.945 57.1579 16.8 56.7079 16.64C56.2579 16.48 55.8129 16.29 55.3729 16.07C54.9429 15.84 54.5579 15.555 54.2179 15.215C53.8779 14.865 53.6029 14.44 53.3929 13.94C53.1829 13.44 53.0779 12.835 53.0779 12.125C53.0779 11.465 53.2029 10.84 53.4529 10.25C53.7129 9.64999 54.0979 9.12499 54.6079 8.67499C55.1179 8.22499 55.7579 7.86999 56.5279 7.60999C57.2979 7.33999 58.1979 7.20499 59.2279 7.20499C59.7879 7.20499 60.3279 7.25499 60.8479 7.35499C61.3779 7.45499 61.8729 7.59499 62.3329 7.77499C62.7929 7.95499 63.2129 8.16999 63.5929 8.41999C63.9729 8.65999 64.3079 8.92499 64.5979 9.21499L63.5479 10.85Z" fill="black"/>
<path d="M79.4872 8.07499V23H78.6922C78.4422 23 78.2972 22.87 78.2572 22.61L78.1222 20.39C77.4322 21.25 76.6322 21.94 75.7222 22.46C74.8222 22.98 73.8172 23.24 72.7072 23.24C71.8772 23.24 71.1522 23.11 70.5322 22.85C69.9122 22.59 69.3972 22.215 68.9872 21.725C68.5772 21.235 68.2672 20.645 68.0572 19.955C67.8472 19.265 67.7422 18.485 67.7422 17.615V8.07499H69.1822V17.615C69.1822 19.015 69.5022 20.115 70.1422 20.915C70.7822 21.705 71.7572 22.1 73.0672 22.1C74.0372 22.1 74.9422 21.855 75.7822 21.365C76.6322 20.865 77.3872 20.175 78.0472 19.295V8.07499H79.4872Z" fill="black"/>
<path d="M96.4614 8.07499L87.8814 27.8C87.8214 27.94 87.7414 28.055 87.6414 28.145C87.5514 28.235 87.4164 28.28 87.2364 28.28H86.2164L88.8414 22.445L82.5264 8.07499H83.7114C83.8614 8.07499 83.9814 8.11499 84.0714 8.19499C84.1614 8.26499 84.2214 8.34499 84.2514 8.43499L89.2764 20.045C89.3364 20.195 89.3864 20.35 89.4264 20.51C89.4764 20.66 89.5214 20.815 89.5614 20.975C89.6114 20.815 89.6614 20.66 89.7114 20.51C89.7714 20.35 89.8314 20.195 89.8914 20.045L94.8564 8.43499C94.9064 8.32499 94.9764 8.23999 95.0664 8.17999C95.1564 8.10999 95.2564 8.07499 95.3664 8.07499H96.4614Z" fill="black"/>
</svg>
